# xmcd
#
# Track frame offsets: 
#        150
#        7963
#        22704
#        63755
#        90159
#        106532
#        119518
#        134022
#        148670
#        178554
#        199229
#        227762
#
# Disc length: 3397 seconds
#
# Revision: 1
# Processed by: cddbd v1.5.2PL0 Copyright (c) Steve Scherf et al.
# Submitted via: ExactAudioCopy v0.95b4
#
DISCID=8f0d430c
DTITLE=BB King and Muddy Waters - Ebbits Field 05-05-73
DYEAR=1973
DGENRE=Blues
TTITLE0=intro jam
TTITLE1=Hideaway
TTITLE2=Muddy Waters intro - Sweet Little Baby
TTITLE3=Rock Me
TTITLE4=Can't Get No Grindin'
TTITLE5=Got My Mojo Workin'
TTITLE6=40 Days And 40 Nights
TTITLE7=band intros
TTITLE8=Didn't Want Me From The Start
TTITLE9=The Thrill Is Gone
TTITLE10=38th Street Blues
TTITLE11=Caledonia
EXTD=
EXTT0=
EXTT1=
EXTT2=
EXTT3=
EXTT4=
EXTT5=
EXTT6=
EXTT7=
EXTT8=
EXTT9=
EXTT10=
EXTT11=
PLAYORDER=
